<svg width="199" height="49" viewBox="0 0 199 49" fill="none" xmlns="http://www.w3.org/2000/svg">
<g clip-path="url(#clip0_115_865)">
<path fill-rule="evenodd" clip-rule="evenodd" d="M0.341522 14.6277C1.0857 8.44554 6.32553 3.21248 12.437 2.74052C19.527 1.88995 26.4999 7.74019 27.0402 14.9856C27.2441 19.4614 27.5958 24.3626 25.4448 28.4442C24.9809 27.1632 24.8637 25.7992 24.5171 24.4922C22.3304 27.6455 18.8185 29.7408 15.0722 30.2906C16.744 31.5976 17.9826 33.4699 18.635 35.5029C18.9052 35.3577 19.1651 35.2021 19.4455 35.0569C19.7411 34.8754 20.0367 34.6783 20.3324 34.4916C21.4639 33.864 22.5598 33.1535 23.6914 32.5415C23.987 32.3444 24.2979 32.1629 24.5936 31.9762C26.0208 31.136 27.4479 30.3113 28.8547 29.4504C29.3696 29.1496 29.8844 28.8488 30.4247 28.5583C30.9904 28.2057 31.5715 27.853 32.1475 27.5107C32.5196 28.2057 32.9732 28.8592 33.1618 29.6319C32.7897 29.8134 32.4278 30.0002 32.0659 30.1817C30.6642 31.0582 29.237 31.8828 27.82 32.7075C27.5091 32.889 27.2033 33.0757 26.9077 33.2728C25.4805 34.113 24.0533 34.922 22.6465 35.7985C22.1317 36.0993 21.6067 36.4002 21.0766 36.6906C20.5108 37.0433 19.945 37.396 19.3639 37.7486C20.3171 41.2339 20.6484 44.8851 20.6127 48.5H18.9001C18.9409 43.8115 18.4872 38.957 16.4688 34.6887C15.6583 33.1327 14.4095 31.2605 12.4523 31.3642C10.5867 31.6235 9.51632 33.4439 8.73136 35.005C6.87602 39.2216 6.44276 43.936 6.42747 48.5052H4.71484C4.93402 42.1674 5.29591 34.6627 10.3522 30.2024C7.38063 29.8498 4.70465 28.0553 2.82381 25.737C2.82381 26.629 2.82381 27.5159 2.79833 28.4079C-0.305811 24.6945 -0.30581 19.2229 0.341522 14.6277ZM2.97673 22.537C4.52115 26.8987 9.12894 29.4504 13.543 29.3726C18.2935 29.0977 22.4324 25.1457 23.1409 20.3639C22.0195 17.9937 19.578 16.6971 17.0804 16.4118C14.1088 16.0436 11.2901 14.5395 9.3736 12.1694C4.98499 13.3363 3.11945 18.3515 2.97673 22.537Z" fill="white"/>
<path fill-rule="evenodd" clip-rule="evenodd" d="M8.68046 19.0517C10.5715 18.8442 10.7499 21.9561 8.87415 22.065C6.96783 22.2984 6.73846 19.0776 8.68046 19.0517Z" fill="white"/>
<path fill-rule="evenodd" clip-rule="evenodd" d="M16.4738 19.0517C18.3649 18.8287 18.6095 22.0235 16.6777 22.0494C14.7969 22.3088 14.542 19.0776 16.4738 19.0517Z" fill="white"/>
<path fill-rule="evenodd" clip-rule="evenodd" d="M9.54175 26.463C9.56723 25.8459 9.47549 25.125 10.3267 25.2702C11.9221 25.9652 13.7367 25.9652 15.2811 25.1405C15.7551 25.4932 16.168 26.2556 15.4595 26.6342C13.6704 27.6818 11.3053 27.5107 9.54175 26.463Z" fill="white"/>
<path fill-rule="evenodd" clip-rule="evenodd" d="M55.0538 6.63031C55.4157 5.20405 56.2364 4.21864 57.424 3.56515C56.2415 2.92204 55.4157 1.94182 55.0538 0.515559C54.7072 1.94182 53.8713 2.92723 52.699 3.56515C53.8713 4.21864 54.7072 5.20405 55.0538 6.63031Z" fill="white"/>
<path fill-rule="evenodd" clip-rule="evenodd" d="M51.2309 9.19238C51.5011 8.10324 52.1331 7.36159 53.0302 6.86369C52.128 6.3658 51.5011 5.61896 51.2309 4.53501V4.51945C50.9608 5.61896 50.3287 6.3658 49.4316 6.86369C50.3338 7.36159 50.9608 8.10843 51.2309 9.19238Z" fill="white"/>
<path fill-rule="evenodd" clip-rule="evenodd" d="M46.0574 10.0689C46.2001 9.46726 46.5467 9.04716 47.0462 8.77229C46.5467 8.51297 46.195 8.09287 46.0574 7.49125C45.9044 8.09287 45.5578 8.51297 45.0532 8.77229C45.5527 9.04716 45.9044 9.46726 46.0574 10.0689Z" fill="white"/>
<path fill-rule="evenodd" clip-rule="evenodd" d="M56.9195 12.7554C57.0877 12.1019 57.4597 11.6559 58 11.3551C57.4597 11.0543 57.0877 10.6083 56.9195 9.95478C56.7665 10.6083 56.3792 11.0543 55.8389 11.3551C56.3792 11.6559 56.7665 12.1019 56.9195 12.7554Z" fill="white"/>
<path fill-rule="evenodd" clip-rule="evenodd" d="M41.9034 11.63L42.6374 12.7969L34.1048 28.2316L33.3708 27.0647L41.9034 11.63Z" fill="white"/>
</g>
<g clip-path="url(#clip1_115_865)">
<path fill-rule="evenodd" clip-rule="evenodd" d="M83.6475 28.2868C82.9595 22.7741 88.8979 19.1396 93.8844 21.1599C93.662 22.099 93.455 23.0381 93.2533 23.9772C89.9996 22.7792 86.1097 24.4746 86.6167 28.2919C88.2875 28.3122 89.9324 28.2919 91.5825 28.2919V31.3477H86.7822C86.6011 36.9416 86.7408 42.5101 86.6994 48.1041H83.7096C83.6889 42.5305 83.7096 36.9416 83.6889 31.3477H80.637V28.2919H83.6475V28.2868Z" fill="white"/>
<path fill-rule="evenodd" clip-rule="evenodd" d="M68.0207 21.2563H70.9899C71.0312 30.2056 71.0105 39.1497 71.0105 48.099H68C68.0207 39.1497 68 30.2056 68.0207 21.2563Z" fill="white"/>
<path fill-rule="evenodd" clip-rule="evenodd" d="M194.52 21.3985H197.676V43.1447C197.453 44.9416 199.077 46.302 199 48.099H196.129C195.358 44.566 192.017 47.6218 189.88 48.2208C185.851 49.5406 181.801 46.0634 181.682 42.1091C181.764 38.4543 181.009 34.5 182.763 31.1244C185.349 27.1904 191.308 27.3883 194.567 30.4036C194.484 27.4086 194.525 24.3934 194.525 21.3985H194.52ZM186.177 31.764C184.082 33.4594 184.754 36.4188 184.609 38.7538C184.547 41.1091 184.464 44.368 187.154 45.4035C189.88 45.9416 191.836 43.4086 194.479 43.3071C194.52 41.0482 194.562 38.7944 194.5 36.5558C194.375 32.8198 189.617 29.566 186.177 31.764Z" fill="white"/>
<path fill-rule="evenodd" clip-rule="evenodd" d="M74.1867 28.4086C75.2057 28.4086 76.2403 28.4086 77.28 28.3883V48.099H74.166C74.1867 41.5508 74.166 34.9772 74.1867 28.4086Z" fill="white"/>
<path fill-rule="evenodd" clip-rule="evenodd" d="M95.2294 34.3173C95.2294 27.3477 106.403 25.8706 109.33 31.6218C110.51 34.0381 109.982 36.8147 110.086 39.3883C106.077 40.3274 102.068 41.2259 98.0589 42.1853C99.0366 47.4594 105.404 45.099 108.865 43.9822C109.191 44.9213 109.496 45.8401 109.801 46.7792C105.937 47.9162 101.028 49.8147 97.4692 46.9975C93.8483 43.764 95.6174 38.5102 95.2294 34.3173ZM98.69 32.7995C97.7744 34.7741 98.2814 37.0127 98.2038 39.0888C101.173 38.4086 104.168 37.7132 107.116 36.9924C107.075 35.1954 107.277 32.9772 105.653 31.7386C103.475 30.6421 100.18 30.6218 98.6952 32.7995H98.69Z" fill="white"/>
<path fill-rule="evenodd" clip-rule="evenodd" d="M112.688 28.4289C113.707 28.4086 114.72 28.3883 115.739 28.368C115.191 34.297 118.347 39.5711 121.357 44.4239C123.064 39.2107 124.631 33.901 124.916 28.3883C125.894 28.3883 126.851 28.3883 127.828 28.4086C128.092 33.901 129.861 39.1142 131.289 44.3629C134.486 39.6523 137.537 34.2563 137.025 28.3883C138.044 28.3883 139.038 28.4086 140.057 28.4086C140.791 35.7589 136.068 41.8299 133.058 48.099H129.375C128.356 44.7843 127.44 41.4492 126.261 38.1751C125.63 41.5914 124.249 44.7843 123.349 48.1193C122.107 48.099 120.886 48.099 119.666 48.099C116.696 41.8096 111.953 35.7792 112.688 28.4289Z" fill="white"/>
<path fill-rule="evenodd" clip-rule="evenodd" d="M144.174 29.6675C148.266 28.2107 154.209 26.5305 157.261 30.6675C160.132 36.1193 157.039 42.6675 159.946 48.1041H156.977C156.775 47.5254 156.568 46.9467 156.345 46.368C153.495 46.2107 151.4 48.9061 148.467 48.4442C142.912 48.0025 140.61 40.2157 144.5 36.5406C147.309 33.4645 152.212 33.5254 155.549 35.703C155.326 34.0838 155.285 31.8299 153.35 31.2716C150.521 30.5711 147.671 31.6523 145.028 32.4898C144.722 31.5508 144.438 30.6117 144.174 29.6726V29.6675ZM148.323 37.4746C144.986 38.5152 144.66 43.4645 147.552 45.1853C150.443 46.3223 152.678 43.4289 155.466 43.2665C156.464 39.3122 152.026 35.835 148.323 37.4746Z" fill="white"/>
<path fill-rule="evenodd" clip-rule="evenodd" d="M162.589 28.4086H165.579C165.558 28.9264 165.538 29.9467 165.517 30.4645C169.096 26.8299 176.566 27.368 178.071 32.7386C178.883 37.7893 178.252 42.9822 178.459 48.0939H175.469C175.407 43.698 175.552 39.3071 175.407 34.9112C175.407 33.3731 174.533 31.698 172.924 31.2766C169.345 30.1193 165.434 33.5355 165.558 37.0888C165.558 40.764 165.579 44.4391 165.579 48.0939H162.568C162.589 41.5457 162.548 34.9721 162.589 28.4036V28.4086Z" fill="white"/>
<path fill-rule="evenodd" clip-rule="evenodd" d="M75.8574 26.7081C76.2867 25.033 77.3006 23.8706 78.749 23.1142C77.3058 22.3579 76.2867 21.1954 75.8574 19.5C75.4281 21.1954 74.4142 22.3579 72.9658 23.1142C74.409 23.8706 75.4281 25.033 75.8574 26.7081Z" fill="white"/>
</g>
<defs>
<clipPath id="clip0_115_865">
<rect width="58" height="48" fill="white" transform="translate(0 0.5)"/>
</clipPath>
<clipPath id="clip1_115_865">
<rect width="131" height="29" fill="white" transform="translate(68 19.5)"/>
</clipPath>
</defs>
</svg>
