<svg width="219" height="96" viewBox="0 0 219 96" fill="none" xmlns="http://www.w3.org/2000/svg">
<path d="M0 95L219 95" stroke="white"/>
<g clip-path="url(#clip0_115_569)">
<path d="M118.029 43.1649C115.532 40.7074 112.42 40.7074 109.947 43.1649C108.056 45.0399 106.165 46.9149 104.306 48.8218C103.795 49.3484 103.364 49.4601 102.75 49.109C101.529 48.4388 100.221 47.9042 99.0479 47.1702C93.5665 43.7234 88.9787 39.2952 84.9096 34.3085C82.8909 31.8351 81.0957 29.1782 79.8431 26.1941C79.5877 25.5878 79.6356 25.1968 80.1303 24.7021C82.0213 22.875 83.8643 21 85.7234 19.125C88.3085 16.5239 88.3085 13.4681 85.7074 10.8511C84.2314 9.35904 82.7553 7.89893 81.2792 6.40691C79.7553 4.88298 78.2473 3.34308 76.7074 1.8351C74.2181 -0.590428 71.0984 -0.590428 68.625 1.85106C66.7181 3.72606 64.8909 5.64893 62.9521 7.49202C61.1489 9.17553 60.2473 11.258 60.0558 13.6835C59.7526 17.641 60.726 21.367 62.0904 25.0053C64.883 32.5372 69.1436 39.2234 74.3058 45.3511C81.2792 53.641 89.601 60.1995 99.3351 64.9308C103.715 67.0612 108.263 68.6968 113.202 68.9681C116.601 69.1596 119.553 68.2979 121.923 65.6489C123.543 63.8378 125.37 62.1862 127.085 60.4548C129.63 57.8777 129.646 54.766 127.117 52.2287C124.101 49.1968 121.069 46.1808 118.029 43.1569" fill="white"/>
<path d="M118.38 31.5C114.223 21.9495 106.763 14.5293 97.3724 10.5957C96.5905 10.2686 95.6969 10.6596 95.3777 11.4654C95.0586 12.2713 95.4336 13.1888 96.2155 13.5239C104.872 17.1463 111.75 23.992 115.58 32.8005C115.835 33.383 116.394 33.734 116.976 33.734C117.184 33.734 117.399 33.6862 117.598 33.5904C118.372 33.2314 118.715 32.2979 118.364 31.508" fill="white"/>
<path d="M95.4255 21.9335C100.675 24.1276 104.848 28.2686 107.17 33.5984C107.418 34.1649 107.952 34.5 108.519 34.5C108.718 34.5 108.925 34.4601 109.125 34.3643C109.867 34.0212 110.202 33.1196 109.867 32.3537C107.234 26.3058 102.495 21.6064 96.5345 19.117C95.7765 18.7978 94.9148 19.1728 94.6117 19.9548C94.3085 20.7367 94.6675 21.6223 95.4255 21.9335Z" fill="white"/>
</g>
<defs>
<clipPath id="clip0_115_569">
<rect width="69" height="69" fill="white" transform="translate(60)"/>
</clipPath>
</defs>
</svg>
