<svg width="219" height="112" viewBox="0 0 219 112" fill="none" xmlns="http://www.w3.org/2000/svg">
<path d="M0 111L219 111" stroke="white"/>
<g clip-path="url(#clip0_115_579)">
<path d="M197 79.481H29V87H197V79.481Z" fill="white"/>
<path d="M118.546 6.23279H109.34V24.0506H118.546V6.23279Z" fill="white"/>
<path d="M105.62 5.34362C107.065 2.1927 110.249 0 113.943 0C117.637 0 120.821 2.1927 122.266 5.34362" fill="white"/>
<path d="M119.298 6.23279H108.415V11.4556H119.298V6.23279Z" fill="white"/>
<path d="M122.266 59.5654H105.317V64.4343H122.266V59.5654Z" fill="white"/>
<path d="M122.266 25.1987H105.317V26.4591H122.266V25.1987Z" fill="white"/>
<path d="M122.266 27.0979H105.317V28.3583H122.266V27.0979Z" fill="white"/>
<path d="M122.266 29.0057H105.317V30.2661H122.266V29.0057Z" fill="white"/>
<path d="M122.266 30.9049H105.317V32.1653H122.266V30.9049Z" fill="white"/>
<path d="M122.266 34.7119H105.317V35.9723H122.266V34.7119Z" fill="white"/>
<path d="M122.266 40.4095H105.317V41.6699H122.266V40.4095Z" fill="white"/>
<path d="M122.266 49.9227H105.317V51.1831H122.266V49.9227Z" fill="white"/>
<path d="M122.266 51.8219H105.317V53.0823H122.266V51.8219Z" fill="white"/>
<path d="M122.266 46.1157H105.317V47.3761H122.266V46.1157Z" fill="white"/>
<path d="M122.266 48.0236H105.317V49.2839H122.266V48.0236Z" fill="white"/>
<path d="M122.266 53.7297H105.317V54.9901H122.266V53.7297Z" fill="white"/>
<path d="M122.266 55.6289H105.317V56.8893H122.266V55.6289Z" fill="white"/>
<path d="M122.266 32.8041H105.317V34.0644H122.266V32.8041Z" fill="white"/>
<path d="M122.266 36.6111H105.317V37.8715H122.266V36.6111Z" fill="white"/>
<path d="M122.266 44.2166H105.317V45.4769H122.266V44.2166Z" fill="white"/>
<path d="M122.266 38.5104H105.317V39.7707H122.266V38.5104Z" fill="white"/>
<path d="M122.266 42.3174H105.317V43.5778H122.266V42.3174Z" fill="white"/>
<path d="M122.171 64.9091H105.231L105.3 69.0786C105.309 69.8038 105.084 70.503 104.651 71.0814L102.453 74.0338C102.09 74.5258 101.891 75.1215 101.891 75.7344V77.0121L117.274 76.9257H121.799C122.508 76.9257 123.062 76.3214 123.01 75.6222L122.171 64.9091Z" fill="white"/>
<path d="M121.288 56.8893H106.312V59.997H121.288V56.8893Z" fill="white"/>
<path d="M120.804 80.5946L120.579 78.7472C125.173 78.3329 127.855 77.3315 128.331 75.8553C129.084 73.5245 124.541 69.8987 122.898 68.8024L122.673 66.4457C123.443 66.955 131.688 72.4022 130.407 76.356C129.655 78.6868 126.514 80.068 120.812 80.586" fill="white"/>
<path d="M133.228 68.7678L142.727 75.3718V62.1725L133.228 68.7678Z" fill="#303332"/>
<path d="M142.728 66.4715V71.0641C145.989 71.0641 149.156 70.4253 152.141 69.1649C155.022 67.9477 157.609 66.2125 159.823 63.9939C162.038 61.7753 163.786 59.2028 165.006 56.3281C166.269 53.3499 166.909 50.1903 166.909 46.9358H162.306C162.306 57.7094 153.525 66.4715 142.728 66.4715Z" fill="#303332"/>
</g>
<defs>
<clipPath id="clip0_115_579">
<rect width="168" height="87" fill="white" transform="translate(29)"/>
</clipPath>
</defs>
</svg>
