<svg width="219" height="124" viewBox="0 0 219 124" fill="none" xmlns="http://www.w3.org/2000/svg">
<path d="M0 123L219 123" stroke="white"/>
<g clip-path="url(#clip0_115_757)">
<path d="M147.228 19.1745L149.532 9.05164L155.834 18.2945L147.228 19.1745Z" fill="#303332"/>
<path d="M153.782 15.2799L151.591 12.0663C153.467 10.1764 155.589 8.79152 157.905 7.94221C160.14 7.12351 162.457 6.84806 164.786 7.10821C167.122 7.37601 169.351 8.1641 171.428 9.4725C173.575 10.8268 175.451 12.6631 177.006 14.9433L174.362 17.606C169.219 10.0693 159.989 9.02106 153.782 15.2799Z" fill="#303332"/>
<path d="M150.949 88.3356H58V95H150.949V88.3356Z" fill="white"/>
<path d="M113.754 56.4751C114.453 54.6158 116.002 53.3151 117.796 53.3151C119.59 53.3151 121.133 54.6082 121.838 56.4751" fill="white"/>
<path d="M121.838 78.0292H113.609V80.9061H121.838V78.0292Z" fill="white"/>
<path d="M121.838 57.707H113.609V58.4569H121.838V57.707Z" fill="white"/>
<path d="M121.838 58.8318H113.609V59.5816H121.838V58.8318Z" fill="white"/>
<path d="M121.838 59.9565H113.609V60.7064H121.838V59.9565Z" fill="white"/>
<path d="M121.838 61.0813H113.609V61.8311H121.838V61.0813Z" fill="white"/>
<path d="M121.838 63.3308H113.609V64.0807H121.838V63.3308Z" fill="white"/>
<path d="M121.838 66.6974H113.609V67.4472H121.838V66.6974Z" fill="white"/>
<path d="M121.838 72.3212H113.609V73.071H121.838V72.3212Z" fill="white"/>
<path d="M121.838 73.4459H113.609V74.1958H121.838V73.4459Z" fill="white"/>
<path d="M121.838 70.0717H113.609V70.8215H121.838V70.0717Z" fill="white"/>
<path d="M121.838 71.1964H113.609V71.9462H121.838V71.1964Z" fill="white"/>
<path d="M121.838 74.5707H113.609V75.3205H121.838V74.5707Z" fill="white"/>
<path d="M121.838 75.6954H113.609V76.4453H121.838V75.6954Z" fill="white"/>
<path d="M121.838 62.2061H113.609V62.9559H121.838V62.2061Z" fill="white"/>
<path d="M121.838 64.4479H113.609V65.1977H121.838V64.4479Z" fill="white"/>
<path d="M121.838 68.9469H113.609V69.6967H121.838V68.9469Z" fill="white"/>
<path d="M121.838 65.5726H113.609V66.3225H121.838V65.5726Z" fill="white"/>
<path d="M121.838 67.8221H113.609V68.572H121.838V67.8221Z" fill="white"/>
<path d="M121.794 81.1815H113.572L113.609 83.6453C113.609 84.0738 113.502 84.4869 113.295 84.8312L112.224 86.5758C112.048 86.8665 111.947 87.2185 111.947 87.5858V88.3432L119.414 88.2897H121.611C121.957 88.2897 122.228 87.9301 122.197 87.5169L121.787 81.1815H121.794Z" fill="white"/>
<path d="M121.353 76.4453H114.088V78.2816H121.353V76.4453Z" fill="white"/>
<path d="M142.859 63.4686C143.891 63.6598 144.672 63.8282 145.453 63.9506C146.441 64.1113 147.43 64.3561 148.418 64.3561C150.219 64.3561 151.837 62.8488 152.365 60.7906C150.244 61.5787 148.235 60.6911 146.221 60.2932C140.637 59.1991 135.071 57.9978 129.5 56.8424C129.065 56.7506 128.637 56.6205 128.209 56.5134C127.907 54.6541 127.101 53.2769 125.842 52.2592C125.414 51.9149 125.017 51.5017 124.627 51.0886C124.356 50.8055 124.129 50.5683 124.148 49.9944C124.174 49.1757 123.771 48.8773 123.103 49.1298C122.335 49.4282 121.592 49.8261 120.856 50.2393C119.616 50.9279 118.407 51.716 117.154 52.3587C116.197 52.856 115.183 52.6418 114.208 52.374C113.868 52.2822 113.547 51.9838 113.276 51.7007C113.131 51.5476 113.037 51.2339 113.024 50.9891C112.993 50.2775 114.333 48.6325 114.913 48.7625C115.87 48.9768 116.619 48.533 117.412 47.9897C118.275 47.4006 119.219 46.9874 120.119 46.4671C120.44 46.2758 120.774 46.0539 121.032 45.7555C122.36 44.2252 123.89 43.6131 125.71 44.0033C130.11 44.9368 134.517 45.8473 138.918 46.7579C139.1 46.7961 139.283 46.8038 139.661 46.842C139.126 45.9927 138.71 45.2505 138.232 44.5772C137.388 43.3836 136.513 42.2206 135.644 41.0499C135.493 40.851 135.348 40.652 135.185 40.4607C134.857 40.0705 134.486 39.9404 134.089 40.2771C133.749 40.5679 133.737 41.1647 134.083 41.7156C134.391 42.2206 134.756 42.672 135.096 43.1464C135.669 43.9498 136.249 44.7608 137.01 45.832C136.45 45.7479 136.142 45.7249 135.846 45.6484C133.497 45.0516 131.149 44.4395 128.795 43.858C128.335 43.7432 127.856 43.7126 127.309 43.6361C126.239 41.3636 125.54 38.9534 126.031 36.2295C126.22 35.1966 126.604 34.286 127.227 33.5362C129.657 30.6363 132.081 27.7288 134.53 24.8519C135.839 23.3139 137.476 23.0461 139.182 23.4057C141.518 23.9031 143.47 25.3339 145.113 27.3768C149.362 32.6486 153.599 37.9358 157.836 43.2153C161.557 47.852 165.278 52.4888 169.005 57.1255C170.346 58.7935 171.416 60.6834 171.913 62.9483C172.165 64.1036 172.278 65.3355 172.272 66.5368C172.26 68.0211 171.737 69.3142 170.843 70.3701C168.583 73.0328 166.298 75.6649 164.107 78.4041C162.533 80.3705 160.676 80.7531 158.604 80.2328C156.558 79.7202 154.795 78.4577 153.335 76.6826C149.967 72.5737 146.649 68.3961 143.319 64.2337C143.199 64.0883 143.111 63.897 142.846 63.4533L142.859 63.4686Z" fill="white"/>
<path d="M114.365 26.3133C113.691 26.8259 113.106 27.2773 112.445 27.7747C112.287 27.3692 112.149 27.0708 112.048 26.7494C111.639 25.4487 111.211 24.1479 110.839 22.8319C110.556 21.8219 110.254 20.9267 109.247 20.6818C108.995 20.6206 108.705 20.1921 108.611 19.8555C108.132 18.1569 107.635 16.4582 107.295 14.7137C107.15 13.9715 107.326 13.0993 107.465 12.3188C109.007 3.8181 115.076 0.0306438 119.874 3.81668e-05C125.124 -0.0305675 131.395 4.32309 132.49 13.1069C133.585 21.929 128.864 28.8 122.883 30.5368C122.436 30.6669 121.913 30.6516 121.473 30.4986C118.942 29.611 116.486 28.5016 114.365 26.3133Z" fill="white"/>
</g>
<defs>
<clipPath id="clip0_115_757">
<rect width="119" height="95" fill="white" transform="translate(58)"/>
</clipPath>
</defs>
</svg>
