<svg width="219" height="127" viewBox="0 0 219 127" fill="none" xmlns="http://www.w3.org/2000/svg">
<path d="M0 126L219 126" stroke="white"/>
<g clip-path="url(#clip0_115_610)">
<path d="M183 96.0931H29V103H183V96.0931Z" fill="white"/>
<path d="M104.858 55.8813C105.667 54.1208 107.435 52.8997 109.489 52.8997C111.544 52.8997 113.32 54.1208 114.121 55.8813" fill="white"/>
<path d="M114.129 86.1334H104.691V88.8454H114.129V86.1334Z" fill="white"/>
<path d="M114.129 66.9592H104.691V67.665H114.129V66.9592Z" fill="white"/>
<path d="M114.129 68.0217H104.691V68.7275H114.129V68.0217Z" fill="white"/>
<path d="M114.129 69.0764H104.691V69.7822H114.129V69.0764Z" fill="white"/>
<path d="M114.129 70.139H104.691V70.8448H114.129V70.139Z" fill="white"/>
<path d="M114.129 72.2642H104.691V72.9699H114.129V72.2642Z" fill="white"/>
<path d="M114.129 75.4441H104.691V76.1498H114.129V75.4441Z" fill="white"/>
<path d="M114.129 80.757H104.691V81.4627H114.129V80.757Z" fill="white"/>
<path d="M114.129 81.8116H104.691V82.5174H114.129V81.8116Z" fill="white"/>
<path d="M114.129 78.6318H104.691V79.3376H114.129V78.6318Z" fill="white"/>
<path d="M114.129 79.6945H104.691V80.4002H114.129V79.6945Z" fill="white"/>
<path d="M114.129 82.8743H104.691V83.58H114.129V82.8743Z" fill="white"/>
<path d="M114.129 83.9369H104.691V84.6426H114.129V83.9369Z" fill="white"/>
<path d="M114.129 71.2017H104.691V71.9074H114.129V71.2017Z" fill="white"/>
<path d="M114.129 73.3268H104.691V74.0325H114.129V73.3268Z" fill="white"/>
<path d="M114.129 77.5692H104.691V78.275H114.129V77.5692Z" fill="white"/>
<path d="M114.129 74.3894H104.691V75.0952H114.129V74.3894Z" fill="white"/>
<path d="M114.129 76.5066H104.691V77.2123H114.129V76.5066Z" fill="white"/>
<path d="M114.074 89.115H104.644L104.684 91.4384C104.684 91.8428 104.565 92.2314 104.327 92.5565L103.105 94.198C102.899 94.4755 102.788 94.8086 102.788 95.1495V95.8632L111.353 95.8157H113.875C114.272 95.8157 114.581 95.4826 114.549 95.0861L114.082 89.1071L114.074 89.115Z" fill="white"/>
<path d="M113.574 84.6426H105.239V86.3792H113.574V84.6426Z" fill="white"/>
<path d="M112.051 62.9625H106.928V66.3089H112.051V62.9625Z" fill="white"/>
<path d="M104.858 59.7113C105.667 57.9509 107.435 56.7297 109.489 56.7297C111.544 56.7297 113.32 57.9509 114.121 59.7113" fill="white"/>
<path d="M112.471 60.0524H106.412V62.9626H112.471V60.0524Z" fill="white"/>
<path d="M114.129 86.1334H104.691V88.8454H114.129V86.1334Z" fill="white"/>
<path d="M114.129 66.9592H104.691V67.665H114.129V66.9592Z" fill="white"/>
<path d="M114.129 68.0217H104.691V68.7275H114.129V68.0217Z" fill="white"/>
<path d="M114.129 69.0764H104.691V69.7822H114.129V69.0764Z" fill="white"/>
<path d="M114.129 70.139H104.691V70.8448H114.129V70.139Z" fill="white"/>
<path d="M114.129 72.2642H104.691V72.9699H114.129V72.2642Z" fill="white"/>
<path d="M114.129 75.4441H104.691V76.1498H114.129V75.4441Z" fill="white"/>
<path d="M114.129 80.757H104.691V81.4627H114.129V80.757Z" fill="white"/>
<path d="M114.129 81.8116H104.691V82.5174H114.129V81.8116Z" fill="white"/>
<path d="M114.129 78.6318H104.691V79.3376H114.129V78.6318Z" fill="white"/>
<path d="M114.129 79.6945H104.691V80.4002H114.129V79.6945Z" fill="white"/>
<path d="M114.129 82.8743H104.691V83.58H114.129V82.8743Z" fill="white"/>
<path d="M114.129 83.9369H104.691V84.6426H114.129V83.9369Z" fill="white"/>
<path d="M114.129 71.2017H104.691V71.9074H114.129V71.2017Z" fill="white"/>
<path d="M114.129 73.3268H104.691V74.0325H114.129V73.3268Z" fill="white"/>
<path d="M114.129 77.5692H104.691V78.275H114.129V77.5692Z" fill="white"/>
<path d="M114.129 74.3894H104.691V75.0952H114.129V74.3894Z" fill="white"/>
<path d="M114.129 76.5066H104.691V77.2123H114.129V76.5066Z" fill="white"/>
<path d="M114.074 89.115H104.644L104.684 91.4384C104.684 91.8428 104.565 92.2314 104.327 92.5565L103.105 94.198C102.899 94.4755 102.788 94.8086 102.788 95.1495V95.8632L111.353 95.8157H113.875C114.272 95.8157 114.581 95.4826 114.549 95.0861L114.082 89.1071L114.074 89.115Z" fill="white"/>
<path d="M113.574 84.6426H105.239V86.3792H113.574V84.6426Z" fill="white"/>
<path d="M68.638 49.2757C68.638 49.2757 64.736 51.7974 66.5205 55.8654C66.5205 55.8654 67.6625 60.3378 73.3489 59.6082C79.0432 58.8787 101.329 54.9693 101.329 54.9693C101.329 54.9693 105.31 54.4777 105.231 50.7427L119.3 50.9092C119.3 50.9092 122.147 50.7427 122.147 48.792C122.147 46.8413 121.005 46.3496 117.595 46.3496C114.184 46.3496 104.422 46.5954 104.422 46.5954L102.391 45.3743L102.217 45.398L101.709 45.4694L100.908 45.5804L99.8535 45.7232C99.4332 45.7787 99.005 45.8421 98.5846 45.8976C98.1008 45.9611 97.6171 46.0324 97.1333 46.0959C96.6019 46.1672 96.0706 46.2386 95.5392 46.31C94.9761 46.3893 94.413 46.4606 93.8499 46.5399C93.2869 46.6192 92.6762 46.6985 92.0893 46.7778C91.5024 46.8571 90.8997 46.9444 90.3049 47.0236C89.7101 47.1029 89.1232 47.1822 88.5284 47.2695C87.9336 47.3567 87.3784 47.4281 86.7995 47.5074C86.2205 47.5867 85.705 47.658 85.1578 47.7294C84.6502 47.8008 84.1506 47.8642 83.643 47.9356C83.191 47.999 82.7389 48.0625 82.2869 48.118C81.8983 48.1735 81.5176 48.221 81.129 48.2766C80.8197 48.3162 80.5183 48.3638 80.209 48.4034C79.9949 48.4352 79.7807 48.4589 79.5666 48.4907C79.1145 48.5541 78.6387 48.6651 78.1787 48.6334C78.028 48.6255 77.8694 48.5937 77.7504 48.4986C77.4411 48.2607 77.3777 47.6818 77.5522 47.3805C77.7584 47.0078 78.2422 46.984 78.6387 46.873C78.8766 46.8095 79.1225 46.7699 79.3683 46.7461L101.63 43.6456C101.63 43.6456 102.954 43.2966 103.787 44.0341C104.049 44.2403 104.406 44.5337 104.406 44.5337C104.406 44.5337 104.739 44.7795 105.397 44.7795C106.055 44.7795 117.079 44.7478 117.079 44.7478C117.079 44.7478 121.441 43.9628 122.774 45.8342C122.964 46.0879 123.543 45.8897 123.543 45.8897L133.861 47.436L138.445 48.1576C138.445 48.1576 139.69 48.2686 139.555 49.4026C139.42 50.5365 137.572 50.1083 137.572 50.1083L127.405 48.6017L123.828 47.9276C123.828 47.9276 124.042 48.8475 123.503 49.0933C123.503 49.0933 124.558 51.5436 122.314 52.63C121.092 52.8203 119.078 52.7172 117.737 52.3287C116.397 51.9401 113.368 51.3137 110.6 51.837C107.832 52.3604 106.452 53.7481 106.452 53.7481C106.452 53.7481 106.277 54.2953 104.89 54.216C103.494 54.1367 103.24 55.112 103.24 55.112C103.24 55.112 102.042 55.1755 102.042 56.0477C102.042 56.92 102.55 57.1658 103.407 57.372C104.263 57.5782 105.397 57.491 105.397 57.491C105.397 57.491 107.245 57.8557 109.624 55.9685C111.274 55.0169 112.368 54.5252 112.368 54.5252C112.368 54.5252 114.319 53.7719 114.486 54.7869C114.621 55.1913 114.383 55.5561 114.383 55.5561C114.383 55.5561 114.874 56.246 115.699 56.3808C116.524 56.5156 129.324 58.8152 129.324 58.8152L144.068 61.218C144.068 61.218 149.54 62.8436 151.023 58.9183C152.506 54.9931 150.492 52.7807 150.492 52.7807C150.492 52.7807 150.127 51.1947 147.906 49.5057C145.693 47.8166 133.551 38.9511 133.551 38.9511C130.673 36.8022 123.765 31.6795 123.051 31.5051C121.869 31.2196 120.942 31.6081 119.792 31.7271C119.062 31.8064 118.586 31.3544 117.92 31.1403C116.921 30.8152 100.52 31.1006 99.6632 31.1006C98.7432 31.1006 98.0057 31.6002 97.0857 31.6716C96.4116 31.7192 95.8485 31.3147 95.222 31.1324C93.8499 30.7438 92.2717 31.5844 91.1693 32.3218C89.9877 33.1148 68.6221 49.2678 68.6221 49.2678L68.638 49.2757Z" fill="white"/>
<path d="M102.312 58.2205L89.7101 60.3377V79.4644C89.7101 79.4644 89.6308 83.9368 93.271 86.5377C96.9113 89.1387 98.3705 88.9167 98.3705 88.9167H103.518V66.1106V58.9579L102.32 58.2284L102.312 58.2205Z" fill="white"/>
<path d="M115.184 59.9333L126.263 61.8682L126.327 72.6844V80.0671C126.327 80.0671 125.756 84.4602 122.972 86.4109C120.188 88.3616 119.681 88.3854 117.952 88.8533H115.184V59.9413V59.9333Z" fill="white"/>
<path d="M108.815 29.1182C116.857 29.1182 123.376 22.5998 123.376 14.5591C123.376 6.51833 116.857 0 108.815 0C100.774 0 94.2544 6.51833 94.2544 14.5591C94.2544 22.5998 100.774 29.1182 108.815 29.1182Z" fill="white"/>
</g>
<defs>
<clipPath id="clip0_115_610">
<rect width="154" height="103" fill="white" transform="translate(29)"/>
</clipPath>
</defs>
</svg>
