<svg width="219" height="101" viewBox="0 0 219 101" fill="none" xmlns="http://www.w3.org/2000/svg">
<path d="M0 100L219 100" stroke="white"/>
<g clip-path="url(#clip0_115_664)">
<path d="M65.1746 59.8112L43.5388 65.047L46.2335 76.2227L67.8692 70.9869L65.1746 59.8112Z" fill="white"/>
<path d="M46.2404 81C41.9903 80.1667 38.4039 76.9561 37.3204 72.4612C36.2369 67.9739 37.969 63.4637 41.3722 60.7882" fill="white"/>
<path d="M49.6673 62.6038L43.3257 64.1384L46.5112 77.3502L52.8529 75.8155L49.6673 62.6038Z" fill="white"/>
<path d="M67.0205 54.5888L65.4851 54.9603L70.4462 75.5359L71.9815 75.1643L67.0205 54.5888Z" fill="white"/>
<path d="M69.3337 54.0225L67.7983 54.394L72.7594 74.9696L74.2948 74.598L69.3337 54.0225Z" fill="white"/>
<path d="M71.6486 53.4637L70.1133 53.8352L75.0744 74.4108L76.6097 74.0392L71.6486 53.4637Z" fill="white"/>
<path d="M73.956 52.9048L72.4207 53.2764L77.3817 73.8519L78.9171 73.4804L73.956 52.9048Z" fill="white"/>
<path d="M78.571 51.789L77.0356 52.1605L81.9967 72.7361L83.5321 72.3645L78.571 51.789Z" fill="white"/>
<path d="M85.5009 50.1143L83.9656 50.4858L88.9267 71.0614L90.462 70.6898L85.5009 50.1143Z" fill="white"/>
<path d="M97.0515 47.3144L95.5161 47.6859L100.477 68.2615L102.013 67.8899L97.0515 47.3144Z" fill="white"/>
<path d="M99.3588 46.7574L97.8235 47.1289L102.785 67.7045L104.32 67.3329L99.3588 46.7574Z" fill="white"/>
<path d="M92.4289 48.432L90.8936 48.8036L95.8546 69.3791L97.39 69.0076L92.4289 48.432Z" fill="white"/>
<path d="M94.7441 47.8732L93.2087 48.2448L98.1698 68.8203L99.7052 68.4488L94.7441 47.8732Z" fill="white"/>
<path d="M101.674 46.1985L100.139 46.5701L105.1 67.1456L106.635 66.7741L101.674 46.1985Z" fill="white"/>
<path d="M103.981 45.6397L102.446 46.0112L107.407 66.5868L108.942 66.2152L103.981 45.6397Z" fill="white"/>
<path d="M76.2636 52.3478L74.7283 52.7194L79.6894 73.2949L81.2247 72.9234L76.2636 52.3478Z" fill="white"/>
<path d="M80.8859 51.2301L79.3506 51.6017L84.3117 72.1772L85.847 71.8057L80.8859 51.2301Z" fill="white"/>
<path d="M90.1308 48.9965L88.5955 49.368L93.5565 69.9436L95.0919 69.572L90.1308 48.9965Z" fill="white"/>
<path d="M83.1936 50.6731L81.6582 51.0447L86.6193 71.6202L88.1546 71.2487L83.1936 50.6731Z" fill="white"/>
<path d="M87.8159 49.5555L86.2805 49.927L91.2416 70.5026L92.777 70.131L87.8159 49.5555Z" fill="white"/>
<path d="M137.249 6.46721C137.73 6.13085 138.226 5.81743 138.76 5.53459C139.752 5.00713 140.759 4.51789 141.781 4.05922C143.185 3.43238 144.62 2.8667 146.077 2.36217C147.81 1.76591 149.572 1.26902 151.365 0.8868C153.334 0.458714 155.341 0.175872 157.355 0.0612056C159.492 -0.0611047 161.636 0.0153392 163.757 0.321115C165.299 0.542802 166.817 0.894445 168.297 1.3684C183.528 6.29139 184.39 21.305 184.39 21.305L185.252 28.5672C185.489 30.547 185.969 32.4352 186 34.4533C186.031 36.4103 185.847 38.4055 185.176 40.2478C184.84 41.1651 184.39 42.0824 183.764 42.8392C182.177 44.758 180.849 46.9748 179.308 48.97C177.668 51.0799 175.523 52.647 173.814 54.6957C172.647 56.0946 171.647 56.9584 171.647 56.9584C171.647 56.9584 171.433 62.8523 172.998 64.4194C173.547 65.4972 175.119 71.284 175.119 71.284H145.452L143.178 64.1136L141.797 63.9913C141.797 63.9913 138.081 66.5445 131.999 65.3443C125.918 64.1442 127.635 57.9904 127.635 57.9904C127.635 57.9904 127.818 56.6374 126.65 56.5762C125.483 56.5151 125.635 53.5643 125.635 53.5643C125.635 53.5643 125.635 52.8381 126.482 52.8228C126.482 52.8228 125.376 51.9284 125.559 50.3384C125.559 50.3384 125.567 48.7101 126.2 47.9763C126.833 47.2424 126.429 46.3786 125.681 46.348C124.926 46.3174 120.477 44.5516 123.575 40.6682C126.673 36.7849 127.825 34.698 127.825 34.698C127.825 34.698 129.702 33.0391 128.146 29.064C126.589 25.089 129.1 20.7852 129.1 20.7852C129.1 20.7852 129.825 18.339 129.527 16.726C129.229 15.113 131.229 12.017 133.411 9.84603C134.121 9.1351 134.853 8.44711 135.601 7.7744C136.127 7.30045 136.669 6.86472 137.241 6.46721H137.249Z" fill="white"/>
<path opacity="0.5" d="M119.035 39.7662L105.827 46.348L110.191 65.1761L124.689 65.4207C124.689 65.4207 126.024 67.4542 128.115 67.2478C130.206 67.0414 131.48 65.7495 131.549 65.222C131.618 64.6945 125.727 37.8398 125.727 37.8398C125.727 37.8398 124.689 36.4256 122.125 36.7543C122.125 36.7543 119.279 37.534 119.317 39.7509H119.027L119.035 39.7662Z" fill="white"/>
<path d="M105.399 22.9484C105.399 22.9484 101.744 28.1466 101.691 28.139C101.691 28.139 101.287 26.2508 100.997 24.9436C94.236 26.7477 87.5136 28.5365 80.7454 30.3406L80.1426 28.3071C86.9795 26.4801 93.7782 24.6608 100.63 22.8338C100.417 21.6412 100.211 20.5175 99.997 19.3708C100.363 19.6078 105.399 22.9408 105.399 22.9408V22.9484Z" fill="black"/>
</g>
<defs>
<clipPath id="clip0_115_664">
<rect width="149" height="81" fill="white" transform="translate(37)"/>
</clipPath>
</defs>
</svg>
